<?xml version="1.0" standalone="no"?>
<!DOCTYPE svg PUBLIC "-//W3C//DTD SVG 20010904//EN"
 "http://www.w3.org/TR/2001/REC-SVG-20010904/DTD/svg10.dtd">
<svg version="1.0" xmlns="http://www.w3.org/2000/svg"
 width="300.000000pt" height="112.000000pt" viewBox="0 0 300.000000 112.000000"
 preserveAspectRatio="xMidYMid meet">
<metadata>
Created by potrace 1.10, written by Peter Selinger 2001-2011
</metadata>
<g transform="translate(0.000000,112.000000) scale(0.100000,-0.100000)"
fill="#000000" stroke="none">
<path d="M725 979 c-160 -30 -264 -126 -321 -297 l-22 -67 -15 35 c-9 20 -28
48 -43 63 l-28 28 30 24 c28 23 28 25 14 52 -21 37 -54 41 -75 9 -15 -22 -15
-27 -1 -54 15 -29 15 -31 -13 -61 -41 -44 -71 -114 -71 -167 0 -46 23 -80 75
-110 16 -10 18 -14 8 -25 -7 -7 -13 -21 -13 -30 0 -39 76 -59 112 -30 21 17
21 21 9 45 -8 14 -20 26 -27 26 -26 0 -25 23 2 51 15 16 31 29 35 29 4 0 12
-21 18 -46 17 -68 55 -136 101 -182 44 -45 47 -54 25 -72 -26 -21 -18 -67 16
-97 72 -65 221 -96 329 -68 36 9 88 21 115 27 59 13 85 32 85 63 0 23 17 35
50 35 17 0 17 -2 4 -29 -21 -43 8 -108 32 -70 3 6 16 8 28 4 36 -12 140 -14
153 -4 8 7 18 7 32 0 13 -8 22 -8 26 -1 4 6 11 7 17 4 14 -9 254 -13 266 -5
15 9 25 68 13 76 -6 3 -11 -2 -11 -14 0 -10 -6 -22 -12 -24 -10 -4 -10 -6 0
-6 20 -2 13 -21 -8 -21 -16 0 -20 7 -20 33 0 29 4 33 42 45 29 9 44 10 46 3 5
-14 39 -14 47 -1 3 6 11 10 17 10 6 0 3 -11 -6 -25 -9 -13 -16 -33 -16 -45 0
-11 -4 -20 -10 -20 -5 0 -10 11 -10 24 0 13 -7 26 -15 30 -18 6 -19 -1 -4 -43
12 -34 19 -37 37 -19 9 9 17 9 35 -1 20 -11 28 -10 47 1 18 10 23 11 27 0 4
-10 8 -10 20 -1 10 9 17 10 21 2 9 -14 109 -15 117 -2 4 5 -5 9 -19 9 -23 0
-26 4 -26 35 0 28 4 35 19 35 11 0 21 6 24 13 2 6 7 9 11 6 3 -3 -3 -15 -14
-26 -14 -15 -16 -23 -7 -26 8 -4 7 -6 -3 -6 -9 -1 -3 -9 15 -21 39 -26 42 -25
37 10 -2 16 -8 30 -13 30 -5 0 -9 5 -9 10 0 18 47 10 132 -21 112 -43 186 -43
283 -3 43 18 71 36 73 47 5 24 -26 22 -89 -8 -90 -41 -127 -42 -235 -5 -62 21
-104 30 -120 26 -21 -6 -25 -4 -22 11 5 28 58 27 127 -1 94 -38 137 -41 206
-16 110 40 132 45 149 31 41 -34 5 -75 -101 -116 -93 -36 -172 -32 -286 14
-43 17 -80 31 -82 31 -3 0 -5 -9 -5 -20 0 -11 6 -20 14 -20 7 0 33 -9 57 -19
76 -34 170 -46 236 -32 78 18 179 64 192 89 17 31 13 66 -9 90 -11 12 -20 24
-20 28 0 4 15 24 34 45 56 62 69 136 40 244 -10 40 -26 71 -46 93 l-32 32 23
78 c48 157 52 181 32 201 -14 14 -29 17 -68 14 -33 -4 -59 0 -79 10 -26 13
-101 30 -144 31 -42 2 -115 -16 -161 -38 -51 -26 -69 -26 -69 -1 0 29 -41 37
-201 36 -87 -1 -165 -4 -173 -7 -8 -3 -28 -31 -44 -62 -40 -80 -81 -142 -91
-142 -12 0 -38 37 -85 122 -20 37 -45 72 -55 77 -10 6 -94 13 -188 17 -168 6
-170 6 -186 -16 -8 -12 -13 -29 -10 -36 6 -16 -42 -20 -52 -5 -20 34 -190 66
-270 50z m166 -35 c30 -9 64 -22 76 -30 27 -17 113 -47 119 -41 2 2 -2 23 -10
45 l-15 42 178 0 178 0 68 -122 c37 -68 71 -127 75 -132 10 -10 128 186 137
227 l6 27 179 0 180 0 -8 -32 c-3 -18 -20 -52 -35 -75 l-29 -42 0 -245 c0
-157 4 -246 10 -246 6 0 10 6 10 13 0 7 9 32 20 55 11 23 23 56 27 72 5 29 8
30 59 30 60 0 69 11 24 30 -48 20 -96 81 -110 140 -27 111 31 221 142 271 75
33 204 34 265 1 37 -19 50 -21 98 -14 55 9 55 9 55 -17 1 -14 -14 -74 -32
-133 -29 -93 -36 -108 -58 -113 l-25 -7 30 -13 c93 -40 139 -161 101 -268 -45
-124 -197 -204 -341 -180 -33 6 -80 20 -105 31 -36 16 -107 42 -114 42 -1 0 0
-16 2 -35 l4 -35 -191 0 -191 0 0 38 c0 27 8 47 30 72 25 30 29 43 30 94 l0
59 -51 -84 c-68 -112 -102 -159 -115 -159 -16 0 -33 22 -100 130 l-59 94 -3
-47 c-3 -41 1 -53 27 -84 23 -27 31 -48 31 -75 l0 -38 -191 0 -192 0 6 46 c3
31 13 54 31 73 l26 27 0 235 c-1 176 -4 240 -14 258 l-13 24 -13 -39 c-19 -57
-68 -152 -90 -174 -12 -12 -33 -20 -53 -20 -28 0 -38 7 -58 37 -50 77 -156 79
-206 4 -46 -69 -21 -184 47 -218 62 -31 135 -10 157 47 14 35 19 39 42 34 27
-6 117 -49 137 -65 6 -5 14 -31 17 -57 3 -26 8 -56 12 -67 5 -17 -6 -29 -68
-68 -80 -51 -127 -70 -195 -82 -108 -18 -276 51 -344 141 -103 135 -105 345
-4 482 90 123 251 179 397 136z m-572 -133 c8 -14 7 -22 -4 -31 -17 -14 -35
-5 -35 19 0 34 24 42 39 12z m791 -200 c0 -72 -4 -132 -9 -135 -5 -4 -11 -3
-13 2 -7 16 -97 62 -136 68 -32 5 -43 3 -57 -14 -54 -63 -66 -72 -90 -72 -29
0 -75 21 -93 43 -11 13 -16 48 -13 98 2 43 43 79 91 79 42 0 67 -17 101 -69
14 -22 19 -23 62 -17 60 9 108 50 127 105 7 23 17 41 22 41 4 0 8 -58 8 -129z
m-771 23 c29 -57 27 -109 -4 -139 -31 -31 -66 -32 -101 -1 -40 34 -37 76 12
158 39 67 39 67 56 45 9 -12 26 -40 37 -63z m1713 -144 c-33 -30 -40 -20 -41
55 l-1 50 34 -40 34 -40 -26 -25z m-1736 -85 c4 -8 15 -15 25 -15 10 0 19 -6
19 -13 0 -21 -12 -28 -26 -16 -8 6 -20 9 -28 6 -22 -9 -41 19 -26 38 7 8 17
15 22 15 5 0 11 -7 14 -15z m1336 -232 c18 -23 -29 -36 -79 -23 -32 10 -50 10
-68 2 -18 -8 -26 -8 -35 3 -7 9 -8 15 0 20 5 3 10 17 10 31 0 30 5 30 42 -1
37 -31 41 -31 80 4 l33 30 3 -27 c2 -15 8 -32 14 -39z m-958 -7 c87 -33 112
-32 216 4 46 17 91 30 100 30 28 0 54 -25 46 -45 -6 -17 -7 -17 -26 0 -20 18
-23 18 -114 -13 -114 -39 -136 -39 -223 -6 -101 39 -122 44 -129 32 -10 -16
15 -33 91 -63 96 -39 173 -39 281 0 45 16 88 26 98 22 21 -8 12 -27 -12 -27
-10 0 -53 -11 -96 -25 -104 -33 -174 -33 -268 2 -108 39 -145 76 -109 112 22
22 29 21 145 -23z m1283 -21 c-2 -5 -11 -9 -21 -7 -11 2 -16 -4 -16 -23 0 -16
6 -25 15 -25 8 0 15 -5 15 -11 0 -6 -10 -9 -22 -7 -19 2 -23 9 -21 36 1 22 -3
32 -13 32 -9 0 -14 -11 -14 -35 0 -19 -4 -35 -10 -35 -5 0 -10 15 -10 33 0 27
-5 35 -27 43 -23 9 -14 11 50 10 48 0 76 -4 74 -11z m-639 -43 c3 -31 -11 -44
-21 -19 -4 9 -8 9 -15 -2 -7 -10 -11 -3 -13 26 -4 38 -3 40 21 33 19 -5 26
-14 28 -38z m-150 15 c3 -12 -4 -20 -17 -24 -11 -3 -18 -9 -15 -14 3 -5 0 -9
-5 -9 -6 0 -11 16 -11 36 0 31 3 35 22 32 13 -2 24 -11 26 -21z m76 0 c8 -12
7 -21 -6 -33 -22 -22 -48 -11 -48 20 0 37 34 45 54 13z m146 13 c0 -5 -5 -10
-10 -10 -6 0 -8 -11 -4 -25 4 -15 2 -25 -5 -25 -6 0 -11 11 -11 25 0 14 -4 25
-10 25 -5 0 -10 5 -10 10 0 6 11 10 25 10 14 0 25 -4 25 -10z m70 -45 c0 -5
-14 -10 -30 -11 -35 -1 -35 -2 -14 38 l16 32 14 -25 c7 -13 13 -28 14 -34z
m76 31 c7 -30 -1 -46 -25 -46 -14 0 -20 9 -23 35 -4 31 -1 35 19 35 16 0 24
-7 29 -24z m50 -26 c8 0 14 -4 14 -10 0 -5 -9 -10 -20 -10 -17 0 -20 6 -19 38
2 30 3 32 6 10 2 -16 11 -28 19 -28z m248 28 c11 -18 -7 -48 -30 -48 -18 0
-28 38 -13 56 14 17 28 14 43 -8z"/>
<path d="M1110 924 c0 -5 14 -31 30 -59 l30 -50 0 -247 c0 -245 0 -247 -24
-275 -13 -15 -26 -38 -30 -50 l-7 -23 155 0 c154 0 156 0 156 22 0 12 -11 34
-25 48 -25 26 -26 31 -23 142 l3 115 90 -143 c49 -79 92 -144 96 -144 8 0 39
46 128 190 l71 114 0 -121 c0 -113 -2 -123 -24 -150 -13 -15 -26 -38 -30 -50
l-7 -23 155 0 c147 0 156 1 156 19 0 11 -11 33 -25 49 l-25 30 0 253 0 252 31
49 c17 27 30 50 28 51 -2 1 -67 1 -145 -1 l-141 -3 -17 -37 c-18 -37 -146
-252 -151 -252 -3 0 -100 163 -141 237 l-29 53 -127 0 c-69 0 -133 3 -142 6
-9 3 -16 2 -16 -2z m305 -132 c28 -47 73 -126 102 -175 51 -88 53 -89 63 -63
5 15 49 94 97 176 l88 148 93 4 c50 2 92 2 92 0 0 -1 -8 -15 -17 -29 -16 -24
-18 -59 -21 -273 -3 -226 -1 -248 16 -282 l20 -38 -94 0 -95 0 20 28 c17 24
20 49 23 245 4 211 4 218 -13 196 -10 -13 -20 -37 -23 -54 -3 -16 -41 -87 -83
-157 -43 -69 -88 -143 -99 -164 l-21 -38 -18 34 c-10 19 -53 91 -96 160 -43
69 -87 151 -99 182 -12 32 -24 60 -28 62 -4 2 -6 -96 -4 -217 3 -202 5 -225
23 -250 l20 -27 -96 0 -96 0 20 26 c20 26 21 39 21 288 -1 214 -3 265 -15 280
-8 11 -15 22 -15 25 0 3 42 5 92 3 l93 -4 50 -86z"/>
<path d="M1456 553 c66 -102 127 -184 99 -133 -23 41 -157 240 -166 245 -5 4
25 -47 67 -112z"/>
<path d="M1678 583 c-49 -68 -98 -148 -98 -159 0 -5 10 7 22 26 12 19 43 68
70 108 54 81 58 98 6 25z"/>
<path d="M1841 312 c-9 -17 -7 -18 15 -14 14 2 23 9 21 15 -6 19 -25 19 -36
-1z"/>
<path d="M2247 920 c-78 -20 -144 -67 -174 -125 -23 -44 -20 -124 6 -171 30
-53 69 -78 190 -119 112 -37 131 -48 131 -75 0 -32 -37 -54 -90 -53 -65 1
-100 23 -100 64 0 29 -1 30 -37 23 -82 -15 -83 -16 -113 -88 -16 -38 -27 -72
-25 -76 3 -4 25 -13 49 -19 25 -6 60 -20 78 -30 52 -31 146 -45 207 -32 131
28 205 103 213 216 4 58 -4 86 -33 120 -40 45 -70 61 -193 99 -109 34 -131 53
-102 85 14 15 31 21 64 21 40 0 49 -5 82 -40 29 -32 44 -40 71 -40 l34 0 24
83 c13 45 26 90 28 100 5 14 -2 17 -44 17 -28 0 -66 8 -89 19 -50 24 -126 33
-177 21z m165 -61 c24 -12 53 -19 70 -17 26 4 29 2 23 -16 -4 -12 -12 -40 -18
-63 -7 -24 -14 -43 -18 -43 -3 0 -17 11 -30 24 -37 36 -84 56 -134 56 -38 0
-52 -5 -76 -29 -32 -32 -35 -47 -18 -85 12 -25 56 -47 169 -81 122 -38 160
-76 160 -160 0 -91 -65 -162 -167 -185 -64 -15 -133 -4 -200 31 -30 16 -63 29
-73 29 -17 0 -18 2 -2 41 9 25 27 46 44 55 28 14 29 14 39 -13 11 -33 31 -47
88 -63 81 -21 171 26 171 90 0 47 -35 73 -146 110 -159 52 -196 85 -196 175 0
103 76 163 210 164 45 1 74 -5 104 -20z"/>
<path d="M2271 826 c2 -2 31 -6 64 -9 36 -3 52 -2 40 3 -19 8 -113 14 -104 6z"/>
<path d="M2130 702 c0 -22 28 -68 52 -84 13 -8 64 -30 115 -47 115 -42 149
-62 168 -103 l15 -33 -6 30 c-8 46 -32 63 -149 105 -130 48 -149 59 -174 108
-11 20 -20 31 -21 24z"/>
<path d="M2464 349 c-28 -31 -68 -49 -132 -58 -42 -6 -48 -9 -22 -10 56 -2
109 18 148 54 21 19 34 35 31 35 -3 0 -14 -9 -25 -21z"/>
<path d="M2126 341 c-3 -5 4 -11 17 -14 12 -2 31 -8 42 -12 16 -5 15 -3 -5 14
-27 22 -46 26 -54 12z"/>
<path d="M688 907 c-101 -38 -167 -98 -210 -194 -18 -38 -22 -67 -23 -143 0
-82 4 -103 26 -150 36 -77 77 -121 151 -161 60 -32 68 -34 163 -34 91 0 105 3
150 28 28 15 67 35 88 45 30 13 36 21 32 37 -4 11 -9 38 -12 61 -5 35 -11 43
-53 67 -61 34 -69 34 -82 -3 -20 -58 -125 -83 -196 -46 -41 21 -79 79 -88 132
-16 103 67 204 167 204 46 0 99 -29 122 -67 21 -36 45 -38 78 -4 16 15 69 139
69 159 0 5 -16 12 -35 15 -20 3 -61 18 -93 34 -46 22 -73 29 -137 31 -49 1
-94 -3 -117 -11z m205 -43 c25 -8 51 -22 58 -30 6 -8 26 -14 45 -14 l33 0 -26
-57 c-14 -32 -28 -60 -30 -62 -2 -3 -17 9 -34 27 -148 151 -396 -5 -340 -214
22 -80 124 -164 200 -164 42 0 99 25 128 57 31 33 33 33 57 18 34 -22 45 -74
20 -93 -78 -57 -107 -67 -204 -67 -80 0 -102 4 -140 24 -61 32 -107 76 -138
136 -24 44 -27 61 -27 145 0 79 4 102 23 137 57 109 157 173 268 173 33 0 81
-7 107 -16z"/>
<path d="M805 810 c68 -9 88 -15 128 -43 16 -10 30 -17 33 -14 2 2 -6 11 -19
20 -47 31 -100 47 -151 46 l-51 -2 60 -7z"/>
<path d="M521 549 c-1 -38 23 -102 59 -153 50 -74 181 -121 282 -102 36 7 134
63 125 72 -3 3 -26 -10 -52 -28 -43 -30 -53 -33 -124 -33 -141 0 -232 70 -271
207 -12 39 -19 53 -19 37z"/>
<path d="M2276 721 c-7 -11 88 -45 106 -39 7 3 4 12 -10 26 -23 23 -85 31 -96
13z"/>
<path d="M2235 458 c10 -34 34 -48 81 -48 45 0 66 16 43 31 -14 8 -110 39
-124 39 -3 0 -3 -10 0 -22z"/>
<path d="M772 638 c-12 -6 -32 -26 -43 -45 -18 -29 -20 -38 -9 -64 17 -40 36
-49 79 -37 50 14 71 35 71 74 0 24 -8 39 -31 58 -34 29 -35 29 -67 14z m55
-30 c13 -12 23 -28 23 -37 0 -17 -38 -61 -54 -61 -13 0 -56 41 -56 54 0 10 50
66 59 66 2 0 15 -10 28 -22z"/>
<path d="M760 572 c0 -16 29 -35 45 -28 8 3 15 10 15 15 0 6 -7 8 -15 5 -8 -4
-22 -1 -30 6 -8 7 -15 8 -15 2z"/>
<path d="M236 584 c-11 -28 -6 -50 12 -67 22 -20 55 -22 71 -4 8 11 5 13 -19
9 -36 -5 -60 12 -59 42 1 19 2 19 8 -3 4 -14 13 -27 20 -29 10 -3 12 0 8 12
-4 10 -7 26 -7 37 0 23 -25 25 -34 3z"/>
<path d="M2736 835 c-17 -17 -20 -34 -10 -59 8 -21 47 -20 67 2 13 15 14 22 4
42 -15 30 -39 36 -61 15z m44 -20 c10 -12 10 -18 0 -31 -12 -13 -15 -13 -28 0
-15 15 -10 46 6 46 5 0 15 -7 22 -15z"/>
<path d="M2736 708 c-71 -95 -93 -186 -57 -237 12 -16 30 -33 41 -36 25 -8 26
-25 2 -25 -26 0 -53 -32 -42 -50 10 -16 87 -22 112 -9 22 12 23 37 3 66 -14
19 -12 22 19 44 18 12 39 32 46 43 17 27 15 85 -5 132 -15 38 -71 104 -86 104
-5 0 -19 -15 -33 -32z m44 0 c0 -6 11 -25 24 -43 34 -44 50 -103 37 -137 -15
-40 -54 -62 -96 -54 -68 13 -77 87 -21 169 20 29 36 58 36 65 0 6 5 12 10 12
6 0 10 -5 10 -12z m10 -324 c0 -21 -21 -27 -38 -11 -13 13 -13 19 -2 32 10 12
16 13 26 4 8 -6 14 -17 14 -25z m-60 -8 c0 -15 -24 -28 -34 -19 -13 14 -5 33
14 33 11 0 20 -6 20 -14z"/>
<path d="M2711 560 c-1 -44 13 -60 56 -60 23 0 36 6 43 21 7 11 9 23 6 26 -3
3 -8 -2 -12 -11 -4 -10 -18 -16 -40 -16 -29 0 -35 4 -40 28 -10 46 -12 48 -13
12z"/>
<path d="M2732 563 c2 -14 9 -29 17 -31 10 -4 12 0 6 14 -4 11 -8 25 -8 32 0
6 -4 12 -9 12 -5 0 -8 -12 -6 -27z"/>
<path d="M187 3 c90 -2 236 -2 325 0 90 1 17 3 -162 3 -179 0 -252 -2 -163 -3z"/>
<path d="M1183 3 c208 -2 546 -2 750 0 205 1 35 2 -378 2 -412 0 -580 -1 -372
-2z"/>
<path d="M2477 3 c94 -2 252 -2 350 0 98 1 21 2 -172 2 -192 1 -273 -1 -178
-2z"/>
</g>
</svg>
