<?xml version="1.0" encoding="UTF-8"?>
<svg width="800" height="400" version="1.1" viewBox="0 0 800 400" xmlns="http://www.w3.org/2000/svg">
 <rect width="800" height="400" fill="#f0f0f0"/>
 <g fill="#999">
  <path d="m367.96 177.07h14.084v6.7588h0.19844q1.7859-3.7704 4.9609-5.6789 3.175-1.9085 7.3413-1.9085 6.7588 0 10.158 3.9688 3.3992 3.9688 3.3992 11.554v25.895h-14.084v-22.372q0-3.2992-1.4111-4.8609-1.4111-1.5617-4.0923-1.5617-2.6823 0-4.0923 1.5617-1.4111 1.5617-1.4111 4.8609v22.372h-14.084z"/>
  <path d="m425.41 165.79v11.284h7.7161v10.408h-7.7161v15.988q0 2.5317 0.99219 3.5234 0.99219 0.99219 3.7704 0.99219 1.4111 0 3.9688-0.24805v10.408q-5.9278 0.99219-10.408 0.99219-18.028 0-18.028-18.028v-13.612h-5.7294v-10.408h5.7294v-11.284z"/>
 </g>
</svg>
