<svg width="64" height="64" viewBox="0 0 64 64" fill="none" xmlns="http://www.w3.org/2000/svg">
  <path d="M32 8C27.5817 8 24 11.5817 24 16C24 20.4183 27.5817 24 32 24C36.4183 24 40 20.4183 40 16C40 11.5817 36.4183 8 32 8Z" stroke="#0891b2" stroke-width="2"/>
  <path d="M20 32C20 28.6863 25.3726 26 32 26C38.6274 26 44 28.6863 44 32" stroke="#0891b2" stroke-width="2"/>
  <path d="M44 32V48C44 50.2091 42.2091 52 40 52H24C21.7909 52 20 50.2091 20 48V32" stroke="#0891b2" stroke-width="2"/>
  <path d="M28 40H36M32 36V44" stroke="#0891b2" stroke-width="2"/>
</svg>
